<mxfile host="app.diagrams.net" agent="Mozilla/5.0 (Windows NT 10.0; Win64; x64) AppleWebKit/537.36 (KHTML, like Gecko) Chrome/140.0.0.0 Safari/537.36 Edg/140.0.0.0" version="28.2.3">
  <diagram name="หน้า-1" id="kbxOF8fqlvEYmPyxLtaT">
    <mxGraphModel dx="1668" dy="925" grid="1" gridSize="10" guides="1" tooltips="1" connect="1" arrows="1" fold="1" page="1" pageScale="1" pageWidth="1169" pageHeight="1654" math="0" shadow="0">
      <root>
        <mxCell id="0" />
        <mxCell id="1" parent="0" />
        <mxCell id="A7ZJB9TKhj1Of3m6JP3H-45" value="Vertical Container" style="swimlane;whiteSpace=wrap;html=1;" parent="1" vertex="1">
          <mxGeometry x="40" y="40" width="1040" height="560" as="geometry" />
        </mxCell>
        <mxCell id="8RMMgnGFAUNZ_zRjVtXi-3" style="edgeStyle=orthogonalEdgeStyle;rounded=0;orthogonalLoop=1;jettySize=auto;html=1;" parent="A7ZJB9TKhj1Of3m6JP3H-45" source="8RMMgnGFAUNZ_zRjVtXi-2" target="A7ZJB9TKhj1Of3m6JP3H-2" edge="1">
          <mxGeometry relative="1" as="geometry">
            <mxPoint x="484" y="60" as="targetPoint" />
            <Array as="points">
              <mxPoint x="340" y="140" />
              <mxPoint x="340" y="140" />
            </Array>
          </mxGeometry>
        </mxCell>
        <mxCell id="A7ZJB9TKhj1Of3m6JP3H-5" value="Login / Register" style="edgeLabel;html=1;align=center;verticalAlign=middle;resizable=0;points=[];" parent="8RMMgnGFAUNZ_zRjVtXi-3" vertex="1" connectable="0">
          <mxGeometry x="-0.0629" y="1" relative="1" as="geometry">
            <mxPoint as="offset" />
          </mxGeometry>
        </mxCell>
        <mxCell id="8RMMgnGFAUNZ_zRjVtXi-2" value="User" style="rounded=0;whiteSpace=wrap;html=1;" parent="A7ZJB9TKhj1Of3m6JP3H-45" vertex="1">
          <mxGeometry x="40" y="120" width="200" height="80" as="geometry" />
        </mxCell>
        <mxCell id="A7ZJB9TKhj1Of3m6JP3H-11" style="edgeStyle=orthogonalEdgeStyle;rounded=0;orthogonalLoop=1;jettySize=auto;html=1;" parent="A7ZJB9TKhj1Of3m6JP3H-45" source="A7ZJB9TKhj1Of3m6JP3H-2" target="8RMMgnGFAUNZ_zRjVtXi-2" edge="1">
          <mxGeometry relative="1" as="geometry">
            <Array as="points">
              <mxPoint x="340" y="180" />
              <mxPoint x="340" y="180" />
            </Array>
          </mxGeometry>
        </mxCell>
        <mxCell id="A7ZJB9TKhj1Of3m6JP3H-12" value="Thesis Infomation" style="edgeLabel;html=1;align=center;verticalAlign=middle;resizable=0;points=[];" parent="A7ZJB9TKhj1Of3m6JP3H-11" vertex="1" connectable="0">
          <mxGeometry x="0.07" relative="1" as="geometry">
            <mxPoint as="offset" />
          </mxGeometry>
        </mxCell>
        <mxCell id="A7ZJB9TKhj1Of3m6JP3H-13" style="edgeStyle=orthogonalEdgeStyle;rounded=0;orthogonalLoop=1;jettySize=auto;html=1;startArrow=classic;startFill=1;" parent="A7ZJB9TKhj1Of3m6JP3H-45" source="A7ZJB9TKhj1Of3m6JP3H-2" target="8RMMgnGFAUNZ_zRjVtXi-2" edge="1">
          <mxGeometry relative="1" as="geometry">
            <Array as="points">
              <mxPoint x="340" y="160" />
              <mxPoint x="340" y="160" />
            </Array>
          </mxGeometry>
        </mxCell>
        <mxCell id="A7ZJB9TKhj1Of3m6JP3H-15" value="Comments" style="edgeLabel;html=1;align=center;verticalAlign=middle;resizable=0;points=[];" parent="A7ZJB9TKhj1Of3m6JP3H-13" vertex="1" connectable="0">
          <mxGeometry x="0.0667" relative="1" as="geometry">
            <mxPoint as="offset" />
          </mxGeometry>
        </mxCell>
        <mxCell id="A7ZJB9TKhj1Of3m6JP3H-16" style="edgeStyle=orthogonalEdgeStyle;rounded=0;orthogonalLoop=1;jettySize=auto;html=1;" parent="A7ZJB9TKhj1Of3m6JP3H-45" source="A7ZJB9TKhj1Of3m6JP3H-2" target="A7ZJB9TKhj1Of3m6JP3H-3" edge="1">
          <mxGeometry relative="1" as="geometry">
            <Array as="points">
              <mxPoint x="700" y="150" />
              <mxPoint x="700" y="150" />
            </Array>
          </mxGeometry>
        </mxCell>
        <mxCell id="A7ZJB9TKhj1Of3m6JP3H-19" value="Thesis Infomation" style="edgeLabel;html=1;align=center;verticalAlign=middle;resizable=0;points=[];" parent="A7ZJB9TKhj1Of3m6JP3H-16" vertex="1" connectable="0">
          <mxGeometry x="-0.0533" y="2" relative="1" as="geometry">
            <mxPoint y="2" as="offset" />
          </mxGeometry>
        </mxCell>
        <mxCell id="A7ZJB9TKhj1Of3m6JP3H-17" style="edgeStyle=orthogonalEdgeStyle;rounded=0;orthogonalLoop=1;jettySize=auto;html=1;" parent="A7ZJB9TKhj1Of3m6JP3H-45" source="A7ZJB9TKhj1Of3m6JP3H-3" target="A7ZJB9TKhj1Of3m6JP3H-2" edge="1">
          <mxGeometry relative="1" as="geometry">
            <Array as="points">
              <mxPoint x="700" y="170" />
              <mxPoint x="700" y="170" />
            </Array>
          </mxGeometry>
        </mxCell>
        <mxCell id="A7ZJB9TKhj1Of3m6JP3H-18" value="Login" style="edgeLabel;html=1;align=center;verticalAlign=middle;resizable=0;points=[];" parent="A7ZJB9TKhj1Of3m6JP3H-17" vertex="1" connectable="0">
          <mxGeometry x="-0.001" y="1" relative="1" as="geometry">
            <mxPoint as="offset" />
          </mxGeometry>
        </mxCell>
        <mxCell id="A7ZJB9TKhj1Of3m6JP3H-43" style="edgeStyle=orthogonalEdgeStyle;rounded=0;orthogonalLoop=1;jettySize=auto;html=1;" parent="A7ZJB9TKhj1Of3m6JP3H-45" source="A7ZJB9TKhj1Of3m6JP3H-2" target="A7ZJB9TKhj1Of3m6JP3H-4" edge="1">
          <mxGeometry relative="1" as="geometry">
            <Array as="points">
              <mxPoint x="420" y="320" />
              <mxPoint x="420" y="320" />
            </Array>
          </mxGeometry>
        </mxCell>
        <mxCell id="A7ZJB9TKhj1Of3m6JP3H-44" value="Thesis&lt;div&gt;Statistic&lt;/div&gt;" style="edgeLabel;html=1;align=center;verticalAlign=middle;resizable=0;points=[];" parent="A7ZJB9TKhj1Of3m6JP3H-43" vertex="1" connectable="0">
          <mxGeometry x="0.0394" relative="1" as="geometry">
            <mxPoint x="-10" y="60" as="offset" />
          </mxGeometry>
        </mxCell>
        <mxCell id="A7ZJB9TKhj1Of3m6JP3H-2" value="Thesis management" style="ellipse;whiteSpace=wrap;html=1;aspect=fixed;" parent="A7ZJB9TKhj1Of3m6JP3H-45" vertex="1">
          <mxGeometry x="400" y="40" width="200" height="200" as="geometry" />
        </mxCell>
        <mxCell id="A7ZJB9TKhj1Of3m6JP3H-20" style="edgeStyle=orthogonalEdgeStyle;rounded=0;orthogonalLoop=1;jettySize=auto;html=1;" parent="A7ZJB9TKhj1Of3m6JP3H-45" source="A7ZJB9TKhj1Of3m6JP3H-2" target="A7ZJB9TKhj1Of3m6JP3H-3" edge="1">
          <mxGeometry relative="1" as="geometry">
            <Array as="points">
              <mxPoint x="700" y="130" />
              <mxPoint x="700" y="130" />
            </Array>
          </mxGeometry>
        </mxCell>
        <mxCell id="A7ZJB9TKhj1Of3m6JP3H-21" value="Notification uploaded" style="edgeLabel;html=1;align=center;verticalAlign=middle;resizable=0;points=[];" parent="A7ZJB9TKhj1Of3m6JP3H-20" vertex="1" connectable="0">
          <mxGeometry x="0.0086" y="-1" relative="1" as="geometry">
            <mxPoint as="offset" />
          </mxGeometry>
        </mxCell>
        <mxCell id="A7ZJB9TKhj1Of3m6JP3H-25" style="edgeStyle=orthogonalEdgeStyle;rounded=0;orthogonalLoop=1;jettySize=auto;html=1;startArrow=classic;startFill=1;" parent="A7ZJB9TKhj1Of3m6JP3H-45" source="A7ZJB9TKhj1Of3m6JP3H-3" target="A7ZJB9TKhj1Of3m6JP3H-2" edge="1">
          <mxGeometry relative="1" as="geometry">
            <Array as="points">
              <mxPoint x="840" y="100" />
            </Array>
          </mxGeometry>
        </mxCell>
        <mxCell id="A7ZJB9TKhj1Of3m6JP3H-26" value="Comments" style="edgeLabel;html=1;align=center;verticalAlign=middle;resizable=0;points=[];" parent="A7ZJB9TKhj1Of3m6JP3H-25" vertex="1" connectable="0">
          <mxGeometry x="0.2828" y="1" relative="1" as="geometry">
            <mxPoint as="offset" />
          </mxGeometry>
        </mxCell>
        <mxCell id="A7ZJB9TKhj1Of3m6JP3H-3" value="Teacher" style="rounded=0;whiteSpace=wrap;html=1;" parent="A7ZJB9TKhj1Of3m6JP3H-45" vertex="1">
          <mxGeometry x="800" y="120" width="200" height="80" as="geometry" />
        </mxCell>
        <mxCell id="A7ZJB9TKhj1Of3m6JP3H-4" value="Student" style="rounded=0;whiteSpace=wrap;html=1;" parent="A7ZJB9TKhj1Of3m6JP3H-45" vertex="1">
          <mxGeometry x="400" y="440" width="200" height="80" as="geometry" />
        </mxCell>
        <mxCell id="A7ZJB9TKhj1Of3m6JP3H-22" style="edgeStyle=orthogonalEdgeStyle;rounded=0;orthogonalLoop=1;jettySize=auto;html=1;" parent="A7ZJB9TKhj1Of3m6JP3H-45" source="A7ZJB9TKhj1Of3m6JP3H-3" target="A7ZJB9TKhj1Of3m6JP3H-2" edge="1">
          <mxGeometry relative="1" as="geometry">
            <mxPoint x="810" y="190" as="sourcePoint" />
            <mxPoint x="607" y="190" as="targetPoint" />
            <Array as="points">
              <mxPoint x="700" y="190" />
              <mxPoint x="700" y="190" />
            </Array>
          </mxGeometry>
        </mxCell>
        <mxCell id="A7ZJB9TKhj1Of3m6JP3H-23" value="Approve / Reject , Feedback" style="edgeLabel;html=1;align=center;verticalAlign=middle;resizable=0;points=[];" parent="A7ZJB9TKhj1Of3m6JP3H-22" vertex="1" connectable="0">
          <mxGeometry x="-0.001" y="1" relative="1" as="geometry">
            <mxPoint x="3" as="offset" />
          </mxGeometry>
        </mxCell>
        <mxCell id="A7ZJB9TKhj1Of3m6JP3H-29" style="edgeStyle=orthogonalEdgeStyle;rounded=0;orthogonalLoop=1;jettySize=auto;html=1;" parent="A7ZJB9TKhj1Of3m6JP3H-45" source="A7ZJB9TKhj1Of3m6JP3H-4" target="A7ZJB9TKhj1Of3m6JP3H-2" edge="1">
          <mxGeometry relative="1" as="geometry">
            <mxPoint x="480" y="440" as="sourcePoint" />
            <mxPoint x="480" y="229" as="targetPoint" />
            <Array as="points">
              <mxPoint x="450" y="330" />
              <mxPoint x="450" y="330" />
            </Array>
          </mxGeometry>
        </mxCell>
        <mxCell id="A7ZJB9TKhj1Of3m6JP3H-35" value="Thesis&lt;div&gt;Infomation&lt;/div&gt;" style="edgeLabel;html=1;align=center;verticalAlign=middle;resizable=0;points=[];" parent="A7ZJB9TKhj1Of3m6JP3H-29" vertex="1" connectable="0">
          <mxGeometry x="-0.035" relative="1" as="geometry">
            <mxPoint x="10" y="-57" as="offset" />
          </mxGeometry>
        </mxCell>
        <mxCell id="A7ZJB9TKhj1Of3m6JP3H-30" style="edgeStyle=orthogonalEdgeStyle;rounded=0;orthogonalLoop=1;jettySize=auto;html=1;" parent="A7ZJB9TKhj1Of3m6JP3H-45" source="A7ZJB9TKhj1Of3m6JP3H-4" target="A7ZJB9TKhj1Of3m6JP3H-2" edge="1">
          <mxGeometry relative="1" as="geometry">
            <mxPoint x="480" y="440" as="sourcePoint" />
            <mxPoint x="480" y="229" as="targetPoint" />
            <Array as="points">
              <mxPoint x="480" y="340" />
              <mxPoint x="480" y="340" />
            </Array>
          </mxGeometry>
        </mxCell>
        <mxCell id="A7ZJB9TKhj1Of3m6JP3H-42" value="Login /&lt;div&gt;Register&lt;/div&gt;" style="edgeLabel;html=1;align=center;verticalAlign=middle;resizable=0;points=[];" parent="A7ZJB9TKhj1Of3m6JP3H-30" vertex="1" connectable="0">
          <mxGeometry x="-0.1324" y="1" relative="1" as="geometry">
            <mxPoint x="1" y="-22" as="offset" />
          </mxGeometry>
        </mxCell>
        <mxCell id="A7ZJB9TKhj1Of3m6JP3H-31" style="edgeStyle=orthogonalEdgeStyle;rounded=0;orthogonalLoop=1;jettySize=auto;html=1;startArrow=classic;startFill=1;" parent="A7ZJB9TKhj1Of3m6JP3H-45" source="A7ZJB9TKhj1Of3m6JP3H-4" target="A7ZJB9TKhj1Of3m6JP3H-2" edge="1">
          <mxGeometry relative="1" as="geometry">
            <mxPoint x="500" y="440" as="sourcePoint" />
            <mxPoint x="500" y="237" as="targetPoint" />
            <Array as="points">
              <mxPoint x="540" y="340" />
              <mxPoint x="540" y="340" />
            </Array>
          </mxGeometry>
        </mxCell>
        <mxCell id="A7ZJB9TKhj1Of3m6JP3H-37" value="Comments" style="edgeLabel;html=1;align=center;verticalAlign=middle;resizable=0;points=[];" parent="A7ZJB9TKhj1Of3m6JP3H-31" vertex="1" connectable="0">
          <mxGeometry x="-0.2453" y="-2" relative="1" as="geometry">
            <mxPoint x="2" y="-81" as="offset" />
          </mxGeometry>
        </mxCell>
        <mxCell id="A7ZJB9TKhj1Of3m6JP3H-34" style="edgeStyle=orthogonalEdgeStyle;rounded=0;orthogonalLoop=1;jettySize=auto;html=1;" parent="A7ZJB9TKhj1Of3m6JP3H-45" source="A7ZJB9TKhj1Of3m6JP3H-2" target="A7ZJB9TKhj1Of3m6JP3H-4" edge="1">
          <mxGeometry relative="1" as="geometry">
            <mxPoint x="560" y="229" as="sourcePoint" />
            <mxPoint x="560" y="440" as="targetPoint" />
            <Array as="points">
              <mxPoint x="580" y="340" />
              <mxPoint x="580" y="340" />
            </Array>
          </mxGeometry>
        </mxCell>
        <mxCell id="A7ZJB9TKhj1Of3m6JP3H-36" value="Notification&lt;div&gt;Apprpove&lt;/div&gt;" style="edgeLabel;html=1;align=center;verticalAlign=middle;resizable=0;points=[];" parent="A7ZJB9TKhj1Of3m6JP3H-34" vertex="1" connectable="0">
          <mxGeometry x="0.0954" y="1" relative="1" as="geometry">
            <mxPoint x="-1" as="offset" />
          </mxGeometry>
        </mxCell>
        <mxCell id="A7ZJB9TKhj1Of3m6JP3H-38" style="edgeStyle=orthogonalEdgeStyle;rounded=0;orthogonalLoop=1;jettySize=auto;html=1;" parent="A7ZJB9TKhj1Of3m6JP3H-45" source="A7ZJB9TKhj1Of3m6JP3H-4" target="A7ZJB9TKhj1Of3m6JP3H-2" edge="1">
          <mxGeometry relative="1" as="geometry">
            <mxPoint x="240" y="180" as="sourcePoint" />
            <mxPoint x="443" y="180" as="targetPoint" />
            <Array as="points">
              <mxPoint x="510" y="340" />
              <mxPoint x="510" y="340" />
            </Array>
          </mxGeometry>
        </mxCell>
        <mxCell id="A7ZJB9TKhj1Of3m6JP3H-39" value="Upload&lt;div&gt;Thesis&lt;/div&gt;" style="edgeLabel;html=1;align=center;verticalAlign=middle;resizable=0;points=[];" parent="A7ZJB9TKhj1Of3m6JP3H-38" vertex="1" connectable="0">
          <mxGeometry x="0.07" relative="1" as="geometry">
            <mxPoint y="47" as="offset" />
          </mxGeometry>
        </mxCell>
      </root>
    </mxGraphModel>
  </diagram>
</mxfile>
